<!-- <svg fill="grey" viewBox="0 0 24 24" xmlns="http://www.w3.org/2000/svg" stroke="grey">
    <g id="SVGRepo_bgCarrier" stroke-width="0"></g>
    <g id="SVGRepo_tracerCarrier" stroke-linecap="round" stroke-linejoin="round"></g>
    <g id="SVGRepo_iconCarrier">
        <path
            d="M4 21h16a1 1 0 0 0 1-1V4a1 1 0 0 0-1-1H4a1 1 0 0 0-1 1v16a1 1 0 0 0 1 1zM7.812 8.907a2.746 2.746 0 0 1 3.907 0l.279.279.278-.279a2.746 2.746 0 0 1 3.907 0 2.745 2.745 0 0 1 0 3.907L11.998 17l-4.187-4.186a2.747 2.747 0 0 1 .001-3.907z">
        </path>
    </g>
</svg> -->

<svg viewBox="0 0 24 24" xmlns="http://www.w3.org/2000/svg">
    <defs>
        <linearGradient id="myGradient" x1="30%" y1="10%" x2="100%" y2="100%">
            <stop offset="0%" stop-color="#3c1ca9" />
            <stop offset="65%" stop-color="#849d9a" />
        </linearGradient>
    </defs>
    <path fill="url(#myGradient)"
        d="M4 21h16a1 1 0 0 0 1-1V4a1 1 0 0 0-1-1H4a1 1 0 0 0-1 1v16a1 1 0 0 0 1 1zM7.812 8.907a2.746 2.746 0 0 1 3.907 0l.279.279.278-.279a2.746 2.746 0 0 1 3.907 0 2.745 2.745 0 0 1 0 3.907L11.998 17l-4.187-4.186a2.747 2.747 0 0 1 .001-3.907z" />

</svg>